<?xml version="1.0" encoding="iso-8859-1"?>
<!-- Generator: Adobe Illustrator 19.0.0, SVG Export Plug-In . SVG Version: 6.00 Build 0)  -->
<svg version="1.1" id="Layer_1" xmlns="http://www.w3.org/2000/svg" xmlns:xlink="http://www.w3.org/1999/xlink" x="0px" y="0px"
	 viewBox="0 0 499.255 499.255" style="enable-background:new 0 0 499.255 499.255;" xml:space="preserve">
<g>
	<path style="fill:#7DA81D;" d="M253.972,469.961c0,2.402-1.946,4.348-4.34,4.348l0,0c-2.395,0-4.34-1.953-4.34-4.348V98.848
		c0-2.395,1.946-4.34,4.34-4.34l0,0c2.395,0,4.34,1.953,4.34,4.34V469.961z"/>
	<circle style="fill:#7DA81D;" cx="249.624" cy="482.154" r="17.085"/>
	<path style="fill:#7DA81D;" d="M249.789,0c-18.038,8.854-31.705,48.679-31.705,67.694s13.666,34.784,31.705,38.148V0z"/>
</g>
<path style="fill:#469315;" d="M249.474,0c18.038,8.854,31.689,48.679,31.689,67.694s-13.666,34.784-31.689,38.148V0z"/>
<path style="fill:#7DA81D;" d="M329.488,118.674c-19.031-6.483-56.848,12.036-70.302,25.474
	c-13.422,13.438-14.935,34.257-4.553,49.38L329.488,118.674z"/>
<path style="fill:#469315;" d="M329.283,118.469c6.475,19.015-12.036,56.848-25.458,70.286
	c-13.454,13.446-34.265,14.927-49.396,4.569L329.283,118.469z"/>
<path style="fill:#7DA81D;" d="M329.488,206.572c-19.031-6.491-56.848,12.02-70.302,25.466
	c-13.422,13.438-14.935,34.257-4.553,49.373L329.488,206.572z"/>
<path style="fill:#469315;" d="M329.283,206.368c6.475,19.015-12.036,56.84-25.458,70.286
	c-13.454,13.438-34.265,14.927-49.396,4.561L329.283,206.368z"/>
<path style="fill:#7DA81D;" d="M329.488,294.463c-19.031-6.498-56.848,12.02-70.302,25.458
	c-13.422,13.446-14.935,34.257-4.553,49.38L329.488,294.463z"/>
<path style="fill:#469315;" d="M329.283,294.258c6.475,19.015-12.036,56.848-25.458,70.286
	c-13.454,13.438-34.265,14.935-49.396,4.569L329.283,294.258z"/>
<path style="fill:#7DA81D;" d="M316.152,395.634c-15.628-5.325-46.75,9.901-57.777,20.953
	c-11.059,11.043-12.288,28.168-3.765,40.606L316.152,395.634z"/>
<path style="fill:#469315;" d="M315.987,395.485c5.333,15.636-9.878,46.742-20.937,57.793
	c-11.059,11.043-28.152,12.272-40.613,3.749L315.987,395.485z"/>
<path style="fill:#7DA81D;" d="M169.759,118.674c19.031-6.483,56.848,12.036,70.302,25.474c13.422,13.438,14.935,34.257,4.553,49.38
	L169.759,118.674z"/>
<path style="fill:#469315;" d="M169.98,118.469c-6.491,19.015,12.02,56.848,25.458,70.286c13.454,13.446,34.249,14.927,49.38,4.569
	L169.98,118.469z"/>
<path style="fill:#7DA81D;" d="M169.759,206.572c19.031-6.491,56.848,12.02,70.302,25.466c13.422,13.438,14.935,34.257,4.553,49.373
	L169.759,206.572z"/>
<path style="fill:#469315;" d="M169.98,206.368c-6.491,19.015,12.02,56.84,25.458,70.286c13.454,13.438,34.249,14.927,49.38,4.561
	L169.98,206.368z"/>
<path style="fill:#7DA81D;" d="M169.759,294.463c19.031-6.498,56.848,12.02,70.302,25.458c13.422,13.446,14.935,34.257,4.553,49.38
	L169.759,294.463z"/>
<path style="fill:#469315;" d="M169.98,294.258c-6.491,19.015,12.02,56.848,25.458,70.286c13.454,13.438,34.249,14.935,49.38,4.569
	L169.98,294.258z"/>
<path style="fill:#7DA81D;" d="M183.095,395.634c15.644-5.325,46.75,9.901,57.793,20.953c11.059,11.043,12.288,28.168,3.749,40.606
	L183.095,395.634z"/>
<g>
	<path style="fill:#469315;" d="M183.276,395.485c-5.333,15.636,9.862,46.742,20.937,57.793
		c11.059,11.043,28.136,12.272,40.598,3.749L183.276,395.485z"/>
	<path style="fill:#469315;" d="M98.655,362.646c0.016,0.032,0.032,0.047,0.032,0.047l0.047-0.008
		c9.476,6.38,22.418,5.427,30.791-2.954c8.381-8.381,19.866-31.839,15.998-43.827l0.095-0.095l-0.11-0.024l-0.016-0.102
		l-0.095,0.087c-12.004-3.868-35.47,7.617-43.843,15.998c-1.284,1.292-2.332,2.702-3.261,4.175v-29.042
		c0.11,0.181,0.181,0.378,0.299,0.559l-0.032,0.032l0.079,0.047c0.032,0.032,0.032,0.063,0.063,0.095l0.032-0.039
		c9.476,6.38,22.418,5.419,30.791-2.954c8.381-8.381,19.866-31.854,15.998-43.835l0.095-0.095l-0.11-0.024
		c-0.016-0.032-0.016-0.079-0.016-0.11l-0.095,0.095c-12.004-3.86-35.47,7.633-43.843,16.006c-1.284,1.292-2.332,2.71-3.261,4.175
		v-28.963c9.854-3.119,17.03-12.225,17.03-23.127c0-11.847-8.452-36.573-19.669-42.315v-0.118c-0.032,0.016-0.063,0.047-0.063,0.047
		c-0.063,0-0.095-0.032-0.126-0.047v0.118c-11.209,5.742-19.684,30.468-19.684,42.315c0,10.902,7.192,20.015,17.054,23.127v28.971
		c-0.929-1.473-1.985-2.899-3.277-4.183c-8.381-8.365-31.846-19.866-43.835-16.006l-0.095-0.095c-0.008,0.032,0,0.079-0.008,0.11
		l-0.11,0.024l0.095,0.095c-3.875,11.981,7.617,35.454,15.99,43.835c8.381,8.373,21.315,9.334,30.775,2.946l0.047,0.047
		c0.032-0.032,0.032-0.071,0.063-0.102l0.063-0.039l-0.032-0.032c0.126-0.181,0.197-0.378,0.323-0.559v29.05
		c-0.929-1.473-1.985-2.891-3.277-4.183c-8.381-8.381-31.846-19.866-43.835-15.998l-0.095-0.087c-0.008,0.031,0,0.071-0.008,0.102
		l-0.11,0.024l0.095,0.095c-3.875,11.981,7.617,35.446,15.99,43.827c8.381,8.381,21.315,9.334,30.791,2.954l0.032,0.032
		c0.016-0.024,0.032-0.047,0.047-0.071l0.079-0.047l-0.032-0.032c0.126-0.189,0.197-0.386,0.323-0.583v29.058
		c-0.929-1.473-1.985-2.899-3.277-4.183c-8.381-8.373-31.846-19.866-43.835-15.998l-0.095-0.095c-0.008,0.032,0,0.079-0.008,0.118
		l-0.11,0.016l0.095,0.087c-3.875,11.981,7.617,35.454,15.99,43.827c8.381,8.381,21.315,9.342,30.791,2.962l0.032,0.032
		c0.016-0.024,0.032-0.055,0.032-0.055l0.095-0.071l-0.032-0.031c0.126-0.189,0.197-0.386,0.323-0.575v33.91
		c-0.78-1.252-1.662-2.458-2.765-3.545c-6.869-6.892-26.175-16.345-36.029-13.162l-0.079-0.071l-0.016,0.087l-0.095,0.016
		l0.079,0.079c-3.182,9.846,6.262,29.152,13.162,36.045c6.892,6.892,17.495,7.672,25.309,2.434l0.016,0.024
		c0.016-0.016,0.016-0.039,0.016-0.039s0.079-0.047,0.11-0.071l-0.032-0.032c0.126-0.189,0.197-0.394,0.323-0.591v6.073
		c-4.592,1.213-7.987,5.348-7.987,10.319c0,5.908,4.781,10.705,10.705,10.705c5.916,0,10.713-4.797,10.713-10.705
		c0-4.97-3.403-9.106-7.987-10.327v-6.049c0.11,0.181,0.197,0.386,0.315,0.575l-0.047,0.032c0.032,0.024,0.063,0.032,0.063,0.032
		s0.047,0.063,0.063,0.079l0.032-0.024c7.798,5.246,18.424,4.458,25.309-2.434c6.9-6.892,16.345-26.207,13.147-36.053l0.079-0.071
		l-0.079-0.016l-0.008-0.087l-0.079,0.071c-9.846-3.182-29.16,6.278-36.037,13.162c-1.095,1.087-1.977,2.3-2.757,3.552v-33.918
		c0.11,0.181,0.197,0.386,0.315,0.567l-0.047,0.039l0.095,0.047c0,0,0.032,0.055,0.047,0.079l0.032-0.032
		c9.476,6.38,22.418,5.419,30.791-2.962c8.381-8.365,19.866-31.846,15.998-43.827l0.095-0.087l-0.11-0.016l-0.016-0.118
		l-0.095,0.095c-12.004-3.868-35.47,7.625-43.843,15.998c-1.284,1.292-2.332,2.702-3.261,4.175v-29.05
		c0.11,0.181,0.197,0.386,0.315,0.575l-0.047,0.039L98.655,362.646z"/>
	<path style="fill:#469315;" d="M406.792,362.646c0.016,0.032,0.032,0.047,0.032,0.047l0.047-0.008
		c9.476,6.38,22.41,5.427,30.791-2.954c8.373-8.381,19.866-31.839,15.99-43.827l0.095-0.095l-0.11-0.024l-0.008-0.102l-0.095,0.087
		c-12.004-3.868-35.47,7.617-43.851,15.998c-1.276,1.292-2.332,2.702-3.261,4.175v-29.042c0.11,0.181,0.181,0.378,0.307,0.559
		l-0.032,0.032l0.079,0.047c0.031,0.032,0.031,0.063,0.063,0.095l0.032-0.039c9.476,6.38,22.41,5.419,30.791-2.954
		c8.373-8.381,19.866-31.854,15.99-43.835l0.095-0.095l-0.11-0.024c-0.008-0.032-0.008-0.079-0.008-0.11l-0.095,0.095
		c-12.004-3.86-35.47,7.633-43.851,16.006c-1.276,1.292-2.332,2.71-3.261,4.175v-28.963c9.862-3.119,17.038-12.225,17.038-23.127
		c0-11.847-8.46-36.573-19.669-42.315v-0.118c-0.032,0.016-0.063,0.047-0.063,0.047c-0.063,0-0.095-0.032-0.126-0.047v0.118
		c-11.217,5.742-19.684,30.468-19.684,42.315c0,10.902,7.192,20.015,17.046,23.127v28.971c-0.929-1.473-1.977-2.899-3.277-4.183
		c-8.373-8.365-31.839-19.866-43.827-16.006l-0.095-0.095c-0.016,0.032,0,0.079-0.016,0.11l-0.11,0.024l0.095,0.095
		c-3.868,11.981,7.617,35.454,15.998,43.835c8.373,8.373,21.315,9.334,30.775,2.946l0.047,0.047
		c0.031-0.032,0.031-0.071,0.063-0.102l0.063-0.039l-0.032-0.032c0.118-0.181,0.189-0.378,0.315-0.559v29.05
		c-0.929-1.473-1.977-2.891-3.277-4.183c-8.373-8.381-31.839-19.866-43.827-15.998l-0.095-0.087c-0.016,0.031,0,0.071-0.016,0.102
		l-0.11,0.024l0.095,0.095c-3.868,11.981,7.617,35.446,15.998,43.827c8.373,8.381,21.315,9.334,30.791,2.954l0.032,0.032
		c0.016-0.024,0.031-0.047,0.047-0.071l0.079-0.047l-0.032-0.032c0.118-0.189,0.189-0.386,0.315-0.583v29.058
		c-0.929-1.473-1.977-2.899-3.277-4.183c-8.373-8.373-31.839-19.866-43.827-15.998l-0.095-0.095c-0.016,0.032,0,0.079-0.016,0.118
		l-0.11,0.016l0.095,0.087c-3.868,11.981,7.617,35.454,15.998,43.827c8.373,8.381,21.315,9.342,30.791,2.962l0.032,0.032
		c0.016-0.024,0.031-0.055,0.031-0.055l0.095-0.071l-0.032-0.031c0.118-0.189,0.189-0.386,0.315-0.575v33.91
		c-0.78-1.252-1.662-2.458-2.757-3.545c-6.877-6.892-26.175-16.345-36.037-13.162l-0.079-0.071l-0.008,0.087l-0.095,0.016
		l0.079,0.079c-3.182,9.846,6.262,29.152,13.162,36.045c6.884,6.892,17.495,7.672,25.309,2.434l0.016,0.024
		c0.016-0.016,0.016-0.039,0.016-0.039s0.079-0.047,0.11-0.071l-0.032-0.032c0.118-0.189,0.189-0.394,0.315-0.591v6.073
		c-4.584,1.213-7.987,5.348-7.987,10.319c0,5.908,4.781,10.705,10.713,10.705c5.908,0,10.705-4.797,10.705-10.705
		c0-4.97-3.395-9.106-7.987-10.327v-6.049c0.11,0.181,0.197,0.386,0.323,0.575l-0.032,0.032c0.032,0.024,0.063,0.032,0.063,0.032
		s0.047,0.063,0.063,0.079l0.032-0.024c7.798,5.246,18.416,4.458,25.309-2.434c6.9-6.892,16.345-26.207,13.147-36.053l0.079-0.071
		l-0.079-0.016l-0.016-0.087l-0.079,0.071c-9.838-3.182-29.16,6.278-36.029,13.162c-1.103,1.087-1.985,2.3-2.765,3.552v-33.918
		c0.11,0.181,0.197,0.386,0.323,0.567l-0.047,0.039l0.095,0.047c0,0,0.032,0.055,0.047,0.079l0.032-0.032
		c9.476,6.38,22.41,5.419,30.791-2.962c8.373-8.365,19.866-31.846,15.99-43.827l0.095-0.087l-0.11-0.016l-0.008-0.118l-0.095,0.095
		c-12.004-3.868-35.47,7.625-43.851,15.998c-1.276,1.292-2.332,2.702-3.261,4.175v-29.05c0.11,0.181,0.197,0.386,0.323,0.575
		l-0.047,0.039L406.792,362.646z"/>
</g>
<g>
</g>
<g>
</g>
<g>
</g>
<g>
</g>
<g>
</g>
<g>
</g>
<g>
</g>
<g>
</g>
<g>
</g>
<g>
</g>
<g>
</g>
<g>
</g>
<g>
</g>
<g>
</g>
<g>
</g>
</svg>
