<svg xmlns="http://www.w3.org/2000/svg" height="512pt" version="1.1" viewBox="0 0 512 512" width="512pt">
<g id="surface1">
<path d="M 361 331 C 319.578125 331 286 297.421875 286 256 C 286 247.714844 292.714844 241 301 241 C 342.421875 241 376 274.578125 376 316 C 376 324.285156 369.285156 331 361 331 Z M 361 331 " style=" stroke:none;fill-rule:nonzero;fill:rgb(65.882353%,82.745098%,16.470588%);fill-opacity:1;" />
<path d="M 361 211 C 319.578125 211 286 177.421875 286 136 C 286 127.714844 292.714844 121 301 121 C 342.421875 121 376 154.578125 376 196 C 376 204.285156 369.285156 211 361 211 Z M 361 211 " style=" stroke:none;fill-rule:nonzero;fill:rgb(65.882353%,82.745098%,16.470588%);fill-opacity:1;" />
<path d="M 391 331 C 432.421875 331 466 297.421875 466 256 C 466 247.714844 459.285156 241 451 241 C 409.578125 241 376 274.578125 376 316 C 376 324.285156 382.714844 331 391 331 Z M 391 331 " style=" stroke:none;fill-rule:nonzero;fill:rgb(57.647059%,74.901961%,0%);fill-opacity:1;" />
<path d="M 391 211 C 432.421875 211 466 177.421875 466 136 C 466 127.714844 459.285156 121 451 121 C 409.578125 121 376 154.578125 376 196 C 376 204.285156 382.714844 211 391 211 Z M 391 211 " style=" stroke:none;fill-rule:nonzero;fill:rgb(57.647059%,74.901961%,0%);fill-opacity:1;" />
<path d="M 391 136 L 391 436 C 391 444.398438 384.402344 451 376 451 C 367.597656 451 361 444.398438 361 436 L 361 136 C 361 127.597656 367.597656 121 376 121 C 384.402344 121 391 127.597656 391 136 Z M 391 136 " style=" stroke:none;fill-rule:nonzero;fill:rgb(72.54902%,86.666667%,22.352941%);fill-opacity:1;" />
<path d="M 376 451 L 376 121 C 384.402344 121 391 127.597656 391 136 L 391 436 C 391 444.398438 384.402344 451 376 451 Z M 376 451 " style=" stroke:none;fill-rule:nonzero;fill:rgb(65.882353%,82.745098%,16.470588%);fill-opacity:1;" />
<path d="M 385.902344 3.898438 C 383.199219 1.199219 379.601562 0 376 0 C 372.398438 0 368.800781 1.199219 366.097656 3.898438 C 364.601562 5.097656 331 36.699219 331 76 C 331 115.300781 364.601562 145.898438 366.097656 147.101562 C 368.800781 149.800781 372.398438 151 376 151 C 379.601562 151 383.199219 149.800781 385.902344 147.101562 C 387.398438 145.898438 421 115.300781 421 76 C 421 36.699219 387.398438 5.097656 385.902344 3.898438 Z M 385.902344 3.898438 " style=" stroke:none;fill-rule:nonzero;fill:rgb(65.882353%,82.745098%,16.470588%);fill-opacity:1;" />
<path d="M 421 76 C 421 115.300781 387.398438 145.898438 385.902344 147.101562 C 383.199219 149.800781 379.601562 151 376 151 L 376 0 C 379.601562 0 383.199219 1.199219 385.902344 3.898438 C 387.398438 5.097656 421 36.699219 421 76 Z M 421 76 " style=" stroke:none;fill-rule:nonzero;fill:rgb(57.647059%,74.901961%,0%);fill-opacity:1;" />
<path d="M 121 331 C 79.578125 331 46 297.421875 46 256 C 46 247.714844 52.714844 241 61 241 C 102.421875 241 136 274.578125 136 316 C 136 324.285156 129.285156 331 121 331 Z M 121 331 " style=" stroke:none;fill-rule:nonzero;fill:rgb(65.882353%,82.745098%,16.470588%);fill-opacity:1;" />
<path d="M 121 211 C 79.578125 211 46 177.421875 46 136 C 46 127.714844 52.714844 121 61 121 C 102.421875 121 136 154.578125 136 196 C 136 204.285156 129.285156 211 121 211 Z M 121 211 " style=" stroke:none;fill-rule:nonzero;fill:rgb(65.882353%,82.745098%,16.470588%);fill-opacity:1;" />
<path d="M 151 331 C 192.421875 331 226 297.421875 226 256 C 226 247.714844 219.285156 241 211 241 C 169.578125 241 136 274.578125 136 316 C 136 324.285156 142.714844 331 151 331 Z M 151 331 " style=" stroke:none;fill-rule:nonzero;fill:rgb(57.647059%,74.901961%,0%);fill-opacity:1;" />
<path d="M 151 211 C 192.421875 211 226 177.421875 226 136 C 226 127.714844 219.285156 121 211 121 C 169.578125 121 136 154.578125 136 196 C 136 204.285156 142.714844 211 151 211 Z M 151 211 " style=" stroke:none;fill-rule:nonzero;fill:rgb(57.647059%,74.901961%,0%);fill-opacity:1;" />
<path d="M 151 136 L 151 436 C 151 444.398438 144.402344 451 136 451 C 127.597656 451 121 444.398438 121 436 L 121 136 C 121 127.597656 127.597656 121 136 121 C 144.402344 121 151 127.597656 151 136 Z M 151 136 " style=" stroke:none;fill-rule:nonzero;fill:rgb(72.54902%,86.666667%,22.352941%);fill-opacity:1;" />
<path d="M 136 451 L 136 121 C 144.402344 121 151 127.597656 151 136 L 151 436 C 151 444.398438 144.402344 451 136 451 Z M 136 451 " style=" stroke:none;fill-rule:nonzero;fill:rgb(65.882353%,82.745098%,16.470588%);fill-opacity:1;" />
<path d="M 145.902344 3.898438 C 143.199219 1.199219 139.601562 0 136 0 C 132.398438 0 128.800781 1.199219 126.097656 3.898438 C 124.601562 5.097656 91 36.699219 91 76 C 91 115.300781 124.601562 145.898438 126.097656 147.101562 C 128.800781 149.800781 132.398438 151 136 151 C 139.601562 151 143.199219 149.800781 145.902344 147.101562 C 147.398438 145.898438 181 115.300781 181 76 C 181 36.699219 147.398438 5.097656 145.902344 3.898438 Z M 145.902344 3.898438 " style=" stroke:none;fill-rule:nonzero;fill:rgb(65.882353%,82.745098%,16.470588%);fill-opacity:1;" />
<path d="M 181 76 C 181 115.300781 147.398438 145.898438 145.902344 147.101562 C 143.199219 149.800781 139.601562 151 136 151 L 136 0 C 139.601562 0 143.199219 1.199219 145.902344 3.898438 C 147.398438 5.097656 181 36.699219 181 76 Z M 181 76 " style=" stroke:none;fill-rule:nonzero;fill:rgb(57.647059%,74.901961%,0%);fill-opacity:1;" />
<path d="M 502.699219 383.5 C 498.5 381.699219 494.597656 379.601562 491 377.199219 C 458.597656 355.601562 415.902344 355.601562 383.5 377.199219 C 361 391.902344 332.199219 391.902344 310 377.199219 C 293.5 366.398438 274.898438 361 256 361 C 238 361 219.402344 366.398438 203.5 377.199219 C 181 391.902344 152.199219 391.902344 130 377.199219 C 97.597656 355.601562 54.902344 355.601562 22.5 377.199219 C 19.800781 379 16.800781 379.898438 13.800781 380.199219 C 6 380.800781 0 387.398438 0 395.199219 L 0 497 C 0 505.402344 6.597656 512 15 512 L 497 512 C 505.402344 512 512 505.402344 512 497 L 512 397.300781 C 512 391.300781 508.398438 385.601562 502.699219 383.5 Z M 502.699219 383.5 " style=" stroke:none;fill-rule:nonzero;fill:rgb(49.411765%,36.470588%,25.098039%);fill-opacity:1;" />
<path d="M 512 397.300781 L 512 497 C 512 505.402344 505.402344 512 497 512 L 256 512 L 256 361 C 274.898438 361 293.5 366.398438 310 377.199219 C 332.199219 391.902344 361 391.902344 383.5 377.199219 C 415.902344 355.601562 458.597656 355.601562 491 377.199219 C 494.601562 379.601562 498.5 381.699219 502.699219 383.5 C 508.398438 385.601562 512 391.300781 512 397.300781 Z M 512 397.300781 " style=" stroke:none;fill-rule:nonzero;fill:rgb(40.784314%,30.196078%,20.392157%);fill-opacity:1;" />
<path d="M 106 451 L 76 451 C 67.710938 451 61 444.289062 61 436 C 61 427.710938 67.710938 421 76 421 L 106 421 C 114.289062 421 121 427.710938 121 436 C 121 444.289062 114.289062 451 106 451 Z M 106 451 " style=" stroke:none;fill-rule:nonzero;fill:rgb(36.078431%,26.666667%,18.431373%);fill-opacity:1;" />
<path d="M 436 451 L 406 451 C 397.710938 451 391 444.289062 391 436 C 391 427.710938 397.710938 421 406 421 L 436 421 C 444.289062 421 451 427.710938 451 436 C 451 444.289062 444.289062 451 436 451 Z M 436 451 " style=" stroke:none;fill-rule:nonzero;fill:rgb(29.803922%,21.960784%,15.686275%);fill-opacity:1;" />
<path d="M 286 436 C 286 444.402344 279.402344 451 271 451 L 241 451 C 232.597656 451 226 444.402344 226 436 C 226 427.597656 232.597656 421 241 421 L 271 421 C 279.402344 421 286 427.597656 286 436 Z M 286 436 " style=" stroke:none;fill-rule:nonzero;fill:rgb(36.078431%,26.666667%,18.431373%);fill-opacity:1;" />
<path d="M 286 436 C 286 444.402344 279.402344 451 271 451 L 256 451 L 256 421 L 271 421 C 279.402344 421 286 427.597656 286 436 Z M 286 436 " style=" stroke:none;fill-rule:nonzero;fill:rgb(29.803922%,21.960784%,15.686275%);fill-opacity:1;" />
</g>
</svg>