<svg width="80" height="80" viewBox="0 0 80 80" fill="none" xmlns="http://www.w3.org/2000/svg">
<path d="M66.6667 0H13.3333C5.96954 0 0 5.96954 0 13.3333V66.6667C0 74.0305 5.96954 80 13.3333 80H66.6667C74.0305 80 80 74.0305 80 66.6667V13.3333C80 5.96954 74.0305 0 66.6667 0Z" fill="#C8D7EA"/>
<path d="M51.882 19.9473C47.617 15.6822 41.9463 13.3333 35.9146 13.3333C29.8829 13.3333 24.2123 15.6822 19.9473 19.9473C15.6822 24.2123 13.3333 29.8829 13.3333 35.9146C13.3333 41.9463 15.6822 47.617 19.9473 51.882C24.2123 56.147 29.883 58.496 35.9146 58.496C41.9463 58.496 47.617 56.147 51.882 51.882C56.147 47.617 58.496 41.9463 58.496 35.9146C58.496 29.8829 56.147 24.2123 51.882 19.9473ZM35.9146 54.187C25.839 54.187 17.642 45.99 17.642 35.9146C17.642 25.839 25.8391 17.642 35.9146 17.642C45.9903 17.642 54.187 25.839 54.187 35.9146C54.187 45.99 45.99 54.187 35.9146 54.187Z" fill="#7C80F2"/>
<path d="M66.0356 62.989L51.873 48.8263C51.0316 47.985 49.6676 47.985 48.8263 48.8263C47.985 49.6676 47.985 51.0316 48.8263 51.873L62.9886 66.0357C63.4093 66.4563 63.961 66.6667 64.5123 66.6667C65.0636 66.6667 65.615 66.4563 66.0356 66.0357C66.877 65.1943 66.877 63.8303 66.0356 62.989Z" fill="#7C80F2"/>
</svg>
