<svg width="80" height="80" viewBox="0 0 80 80" fill="none" xmlns="http://www.w3.org/2000/svg">
<rect width="80" height="80" rx="12" fill="url(#paint0_linear)"/>
<path d="M25.534 14.4262C29.1486 19.7674 31.8277 23.698 33.128 27.1747C29.8974 31.9538 27.1695 36.0774 25.1565 39.8426C20.6446 39.6432 17.0492 35.9905 17.0492 31.4744C17.0492 26.8353 20.3668 22.0605 25.534 14.4262Z" fill="white" fill-opacity="0.6"/>
<path d="M38.1273 26.793C30.0095 38.7886 24.794 46.2908 24.794 53.5841C24.794 60.8819 30.7584 66.793 38.1273 66.793C45.4962 66.793 51.4606 60.8819 51.4606 53.5841C51.4606 46.2908 46.2451 38.7886 38.1273 26.793ZM55.9051 20.1263C52.114 25.7286 49.3051 29.8508 47.9429 33.4952C51.0873 38.3886 53.4229 42.6108 54.7295 46.6775C60.3384 47.413 64.794 43.1019 64.794 37.9863C64.794 33.1263 61.3184 28.1241 55.9051 20.1263Z" fill="white"/>
<defs>
<linearGradient id="paint0_linear" x1="100" y1="117.857" x2="20" y2="-2.14286" gradientUnits="userSpaceOnUse">
<stop stop-color="#DB93E8"/>
<stop offset="1" stop-color="#6566F8"/>
</linearGradient>
</defs>
</svg>
