<svg width="80" height="80" viewBox="0 0 80 80" fill="none" xmlns="http://www.w3.org/2000/svg">
<path d="M70.7692 0H9.23077C4.13276 0 0 4.13276 0 9.23077V70.7692C0 75.8672 4.13276 80 9.23077 80H70.7692C75.8672 80 80 75.8672 80 70.7692V9.23077C80 4.13276 75.8672 0 70.7692 0Z" fill="url(#paint0_linear)"/>
<path d="M44.7372 40C44.7372 37.3878 42.6122 35.2628 40 35.2628C37.3878 35.2628 35.2628 37.3878 35.2628 40C35.2628 42.6121 37.3878 44.7372 40 44.7372C42.6122 44.7372 44.7372 42.6121 44.7372 40Z" fill="#FFD48C"/>
<path d="M38.9802 22.4814C39.2619 22.7631 39.6309 22.904 40 22.904C40.3691 22.904 40.7383 22.7633 41.0199 22.4814L44.1095 19.3917C44.6729 18.8286 44.6729 17.9153 44.1095 17.352C43.5465 16.7888 42.6331 16.789 42.0699 17.352L41.4423 17.9796V16.827C41.4423 16.0303 40.7965 15.3846 40 15.3846C39.2034 15.3846 38.5577 16.0303 38.5577 16.827V17.9796L37.93 17.3519C37.3669 16.7888 36.4537 16.7886 35.8903 17.3519C35.3271 17.9153 35.3271 18.8283 35.8903 19.3917L38.9802 22.4814Z" fill="white"/>
<path d="M41.4423 32.5169V25.5429C40.9852 25.7041 40.4991 25.7884 40 25.7884C39.5009 25.7884 39.0148 25.7041 38.5577 25.5429V32.5169C39.0251 32.4271 39.5068 32.3783 40 32.3783C40.4932 32.3783 40.9749 32.4271 41.4423 32.5169Z" fill="#DDE4E9"/>
<path d="M41.0199 57.5186C40.7382 57.2369 40.3691 57.0961 40 57.0961C39.6309 57.0961 39.2617 57.2369 38.9802 57.5186L35.8903 60.6083C35.3271 61.1715 35.3271 62.0847 35.8903 62.648C36.4535 63.2112 37.3668 63.2112 37.93 62.648L38.5577 62.0204V63.1731C38.5577 63.9697 39.2034 64.6154 40 64.6154C40.7965 64.6154 41.4423 63.9697 41.4423 63.1731V62.0204L42.0699 62.6481C42.6331 63.2112 43.5463 63.2114 44.1095 62.6481C44.6729 62.0847 44.6729 61.1717 44.1095 60.6084L41.0199 57.5186Z" fill="white"/>
<path d="M38.5577 47.4831V54.4571C39.0148 54.2959 39.5009 54.2116 40 54.2116C40.4991 54.2116 40.9852 54.2959 41.4423 54.4571V47.4831C40.9749 47.5729 40.4932 47.6217 40 47.6217C39.5068 47.6217 39.0251 47.5729 38.5577 47.4831Z" fill="#DDE4E9"/>
<path d="M63.1731 38.5577H62.0205L62.648 37.9301C63.2112 37.3669 63.2114 36.4537 62.648 35.8904C62.0848 35.327 61.1715 35.327 60.6083 35.8904L57.5186 38.9801C57.2371 39.2618 57.0961 39.6309 57.0961 40C57.0961 40.3691 57.2369 40.7383 57.5186 41.0198L60.6083 44.1097C61.1715 44.6729 62.0848 44.6729 62.648 44.1097C63.2114 43.5464 63.2112 42.6332 62.648 42.07L62.0205 41.4423H63.1731C63.9695 41.4423 64.6154 40.7966 64.6154 40C64.6154 39.2035 63.9695 38.5577 63.1731 38.5577Z" fill="white"/>
<path d="M47.4832 38.5577C47.5731 39.0251 47.6218 39.5068 47.6218 40C47.6218 40.4932 47.5731 40.9749 47.4832 41.4423H54.4571C54.296 40.9852 54.2117 40.4991 54.2117 40C54.2117 39.5009 54.296 39.0148 54.4571 38.5577H47.4832Z" fill="#DDE4E9"/>
<path d="M19.3917 44.1097L22.4814 41.0198C22.7629 40.7381 22.9038 40.3691 22.9038 40C22.9038 39.6309 22.7631 39.2617 22.4814 38.9801L19.3917 35.8904C18.8285 35.327 17.9152 35.327 17.3518 35.8904C16.7886 36.4535 16.7886 37.3667 17.3518 37.9301L17.9795 38.5577H16.8269C16.0303 38.5577 15.3846 39.2035 15.3846 40C15.3846 40.7966 16.0303 41.4423 16.8269 41.4423H17.9795L17.3518 42.0698C16.7888 42.6331 16.7886 43.5463 17.3518 44.1097C17.9152 44.6729 18.8285 44.6729 19.3917 44.1097Z" fill="white"/>
<path d="M32.5168 41.4423C32.4269 40.9749 32.3782 40.4932 32.3782 40C32.3782 39.5068 32.4269 39.0251 32.5168 38.5577H25.5428C25.704 39.0148 25.7883 39.5009 25.7883 40C25.7883 40.4991 25.704 40.9852 25.5428 41.4423H32.5168Z" fill="#DDE4E9"/>
<path d="M61.6686 47.7649C61.4625 46.9955 60.6717 46.5389 59.9022 46.7451L55.6815 47.8761C55.2968 47.9792 54.9903 48.2284 54.8058 48.5481C54.6212 48.8678 54.5586 49.2578 54.6617 49.6424L55.7926 53.8632C55.9988 54.6326 56.7897 55.0892 57.5591 54.8831C58.3285 54.6769 58.7851 53.8858 58.5789 53.1166L58.3492 52.2592L59.3474 52.8355C60.0372 53.2338 60.9194 52.9974 61.3175 52.3077C61.7158 51.6178 61.4795 50.7357 60.7897 50.3374L59.7915 49.7611L60.6489 49.5314C61.4182 49.3252 61.8749 48.5343 61.6686 47.7649Z" fill="white"/>
<path d="M52.3075 47.1057C52.5571 46.6734 52.8731 46.2947 53.2412 45.9794L47.2017 42.4924C47.0458 42.9421 46.8472 43.3837 46.6006 43.8107C46.3542 44.2378 46.0709 44.6307 45.7594 44.9904L51.7989 48.4774C51.888 48.001 52.058 47.538 52.3075 47.1057Z" fill="#DDE4E9"/>
<path d="M18.3312 32.2351C18.5374 33.0046 19.3283 33.4612 20.0977 33.2549L24.3185 32.124C24.7031 32.0209 25.0097 31.7717 25.1941 31.452C25.3788 31.1323 25.4414 30.7423 25.3381 30.3575L24.2074 26.1369C24.0012 25.3674 23.2103 24.9108 22.4409 25.1171C21.6715 25.3231 21.2149 26.114 21.4211 26.8835L21.6508 27.7409L20.6526 27.1646C19.9628 26.7663 19.0806 27.0026 18.6823 27.6925C18.2841 28.3823 18.5205 29.2643 19.2103 29.6626L20.2085 30.2389L19.3511 30.4686C18.5818 30.6748 18.1251 31.4657 18.3312 32.2351Z" fill="white"/>
<path d="M33.3994 36.1891C33.6458 35.762 33.9291 35.3691 34.2406 35.0094L28.2009 31.5225C28.112 31.9989 27.942 32.462 27.6925 32.8943C27.4429 33.3265 27.1268 33.7052 26.7586 34.0206L32.7983 37.5075C32.9541 37.0579 33.1528 36.6162 33.3994 36.1891Z" fill="#DDE4E9"/>
<path d="M53.8635 55.7923L49.6428 54.6614C49.258 54.5583 48.868 54.6209 48.5483 54.8055C48.2286 54.9901 47.9794 55.2966 47.8763 55.6814L46.7455 59.902C46.5392 60.6715 46.9958 61.4623 47.7654 61.6684C48.5348 61.8748 49.3257 61.4178 49.5318 60.6486L49.7615 59.7912L50.3378 60.7894C50.7362 61.4792 51.6183 61.7155 52.308 61.3174C52.9978 60.9191 53.2342 60.0369 52.836 59.3471L52.2595 58.3489L53.1171 58.5786C53.8863 58.7848 54.6772 58.3281 54.8834 57.5588C55.0895 56.7892 54.6329 55.9983 53.8635 55.7923Z" fill="white"/>
<path d="M48.4778 51.7988L44.9908 45.7594C44.6311 46.0709 44.2383 46.354 43.8111 46.6006C43.384 46.8472 42.9425 47.0459 42.4928 47.2017L45.9798 53.2411C46.2951 52.8729 46.6738 52.5569 47.1061 52.3074C47.5383 52.0579 48.0014 51.8879 48.4778 51.7988Z" fill="#DDE4E9"/>
<path d="M26.1365 24.2077L30.3572 25.3386C30.742 25.4417 31.132 25.3791 31.4517 25.1945C31.7714 25.0098 32.0206 24.7034 32.1237 24.3186L33.2546 20.098C33.4608 19.3286 33.0042 18.5377 32.2346 18.3315C31.4652 18.1252 30.6743 18.582 30.4682 19.3514L30.2385 20.2088L29.6622 19.2106C29.2639 18.5208 28.3819 18.2845 27.692 18.6828C27.0022 19.0809 26.7659 19.9631 27.1642 20.6529L27.7405 21.6511L26.8831 21.4214C26.1137 21.2152 25.3228 21.6718 25.1166 22.4412C24.9105 23.2108 25.3671 24.0017 26.1365 24.2077Z" fill="white"/>
<path d="M31.5222 28.2012L35.0092 34.2406C35.3691 33.9291 35.7619 33.646 36.1889 33.3994C36.616 33.1528 37.0577 32.9541 37.5074 32.7983L34.0203 26.7589C33.7051 27.1271 33.3263 27.4431 32.894 27.6926C32.4619 27.9421 31.9988 28.1121 31.5222 28.2012Z" fill="#DDE4E9"/>
<path d="M32.124 55.6815C32.0209 55.2968 31.7717 54.9903 31.452 54.8057C31.1323 54.6212 30.7423 54.5586 30.3575 54.6617L26.1369 55.7926C25.3674 55.9988 24.9108 56.7895 25.1171 57.5591C25.3231 58.3284 26.1142 58.7849 26.8835 58.5789L27.7409 58.3492L27.1646 59.3474C26.7663 60.0372 27.0026 60.9194 27.6925 61.3175C28.3823 61.7158 29.2643 61.4795 29.6626 60.7897L30.2389 59.7915L30.4686 60.6489C30.6748 61.4183 31.4657 61.8749 32.2351 61.6688C33.0046 61.4626 33.4612 60.6717 33.2549 59.9023L32.124 55.6815Z" fill="white"/>
<path d="M36.1891 46.6006C35.762 46.3542 35.3691 46.0709 35.0094 45.7594L31.5225 51.7991C31.9989 51.888 32.462 52.058 32.8943 52.3076C33.3265 52.5571 33.7052 52.8732 34.0206 53.2414L37.5075 47.2017C37.0578 47.0459 36.6162 46.8472 36.1891 46.6006Z" fill="#DDE4E9"/>
<path d="M47.876 24.3185C47.9791 24.7032 48.2283 25.0097 48.548 25.1943C48.8677 25.3788 49.2578 25.4414 49.6425 25.3383L53.8632 24.2074C54.6326 24.0012 55.0892 23.2105 54.8829 22.4409C54.6768 21.6715 53.886 21.2149 53.1165 21.4211L52.2591 21.6508L52.8355 20.6526C53.2337 19.9628 52.9974 19.0806 52.3075 18.6825C51.6178 18.2842 50.7357 18.5205 50.3374 19.2103L49.7611 20.2085L49.5314 19.3511C49.3251 18.5817 48.5343 18.1251 47.7649 18.3312C46.9955 18.5374 46.5388 19.3283 46.7451 20.0977L47.876 24.3185Z" fill="white"/>
<path d="M43.8109 33.3994C44.238 33.6458 44.6309 33.9291 44.9906 34.2406L48.4775 28.2009C48.0009 28.112 47.5378 27.942 47.1057 27.6924C46.6734 27.4428 46.2946 27.1268 45.9794 26.7586L42.4925 32.7983C42.9421 32.9541 43.3837 33.1528 43.8109 33.3994Z" fill="#DDE4E9"/>
<path d="M25.1945 48.5483C25.01 48.2284 24.7034 47.9792 24.3188 47.8761L20.098 46.7454C19.3286 46.5391 18.5378 46.9957 18.3317 47.7652C18.1254 48.5346 18.5822 49.3255 19.3514 49.5317L20.2088 49.7614L19.2106 50.3377C18.5209 50.736 18.2845 51.6181 18.6828 52.308C19.0811 52.9977 19.9632 53.2341 20.6529 52.8358L21.6511 52.2595L21.4214 53.1169C21.2152 53.8861 21.6718 54.6772 22.4414 54.8832C23.2108 55.0895 24.0017 54.6327 24.2078 53.8634L25.3386 49.6426C25.4417 49.258 25.3791 48.868 25.1945 48.5483Z" fill="white"/>
<path d="M27.6926 47.106C27.9421 47.5382 28.1121 48.0012 28.2011 48.4779L34.2406 44.9908C33.9291 44.6309 33.646 44.2382 33.3994 43.8111C33.1528 43.384 32.9541 42.9423 32.7983 42.4926L26.7588 45.9797C27.1269 46.2949 27.4429 46.6737 27.6926 47.106Z" fill="#DDE4E9"/>
<path d="M54.8055 31.4517C54.9902 31.7715 55.2966 32.0208 55.6814 32.1239L59.9022 33.2546C60.6715 33.4609 61.4625 33.0043 61.6686 32.2348C61.8748 31.4654 61.4181 30.6745 60.6488 30.4683L59.7914 30.2386L60.7895 29.6623C61.4794 29.264 61.7157 28.3818 61.3174 27.692C60.9192 27.0023 60.0371 26.7658 59.3472 27.1642L58.3491 27.7405L58.5788 26.8831C58.7848 26.1138 58.3283 25.3228 57.5589 25.1168C56.7894 24.9106 55.9985 25.3671 55.7925 26.1366L54.6615 30.3574C54.5585 30.742 54.6209 31.132 54.8055 31.4517Z" fill="white"/>
<path d="M53.2411 34.0203C52.8728 33.7051 52.5568 33.3263 52.3072 32.894C52.0577 32.4618 51.8877 31.9988 51.7988 31.5222L45.7592 35.0092C46.0708 35.3691 46.3538 35.7618 46.6005 36.1889C46.8469 36.616 47.0457 37.0577 47.2015 37.5072L53.2411 34.0203Z" fill="#DDE4E9"/>
<defs>
<linearGradient id="paint0_linear" x1="-31.2418" y1="-38.6928" x2="83.1257" y2="85.4008" gradientUnits="userSpaceOnUse">
<stop stop-color="#7C80F2"/>
<stop offset="1" stop-color="#7C80F2"/>
</linearGradient>
</defs>
</svg>
