<svg width="80" height="80" viewBox="0 0 80 80" fill="none" xmlns="http://www.w3.org/2000/svg">
<path d="M0 13.3333C0 5.96953 5.96953 0 13.3333 0H66.6667C74.0303 0 80 5.96953 80 13.3333V66.6667C80 74.0303 74.0303 80 66.6667 80H13.3333C5.96953 80 0 74.0303 0 66.6667V13.3333Z" fill="url(#paint0_linear)"/>
<path d="M38.619 16.2771C39.0003 16.6585 39.5003 16.8492 40 16.8492C40.4997 16.8492 40.9997 16.6586 41.381 16.2771L45.565 12.0931C46.328 11.3305 46.328 10.0937 45.565 9.33101C44.8024 8.56824 43.5657 8.56838 42.803 9.33101L41.953 10.1807V8.61994C41.953 7.54128 41.0787 6.66681 40 6.66681C38.9213 6.66681 38.047 7.54128 38.047 8.61994V10.1807L37.197 9.33088C36.4343 8.56824 35.1977 8.56811 34.435 9.33088C33.672 10.0936 33.672 11.3302 34.435 12.093L38.619 16.2771Z" fill="white" fill-opacity="0.5"/>
<path d="M41.381 63.723C40.9997 63.3417 40.4997 63.151 40 63.151C39.5003 63.151 39.0003 63.3417 38.619 63.723L34.435 67.907C33.672 68.6697 33.672 69.9063 34.435 70.6693C35.1977 71.432 36.4343 71.432 37.197 70.6693L38.047 69.8193V71.3803C38.047 72.459 38.9213 73.3333 40 73.3333C41.0787 73.3333 41.953 72.459 41.953 71.3803V69.8197L42.803 70.6693C43.5657 71.432 44.8024 71.432 45.565 70.6693C46.328 69.9067 46.328 68.67 45.565 67.9073L41.381 63.723Z" fill="white" fill-opacity="0.5"/>
<path d="M71.3803 38.047H69.8193L70.6693 37.197C71.432 36.4347 71.432 35.1977 70.6693 34.435C69.9063 33.6723 68.67 33.6723 67.907 34.435L63.723 38.619C63.3417 39.0007 63.151 39.5003 63.151 40C63.151 40.5 63.3417 41 63.723 41.381L67.907 45.5653C68.6697 46.328 69.9063 46.328 70.6693 45.5653C71.432 44.8027 71.432 43.566 70.6693 42.803L69.8193 41.9533H71.3803C72.4587 41.9533 73.3333 41.0787 73.3333 40C73.3333 38.9217 72.4587 38.047 71.3803 38.047Z" fill="white" fill-opacity="0.5"/>
<path d="M12.0928 45.5653L16.2768 41.381C16.6582 40.9997 16.849 40.5 16.849 40C16.849 39.5003 16.6583 39.0003 16.2768 38.619L12.0928 34.435C11.3302 33.6723 10.0935 33.6723 9.33072 34.435C8.56796 35.1977 8.56796 36.4343 9.33072 37.197L10.1806 38.047H8.61979C7.54112 38.047 6.66666 38.9213 6.66666 40C6.66666 41.0787 7.54112 41.9533 8.61979 41.9533H10.1806L9.33072 42.803C8.56822 43.5657 8.56796 44.8023 9.33072 45.5653C10.0935 46.328 11.3302 46.328 12.0928 45.5653Z" fill="white" fill-opacity="0.5"/>
<path d="M69.343 50.515C69.064 49.4733 67.993 48.8547 66.951 49.134L61.2353 50.6657C60.7143 50.8053 60.2993 51.1427 60.0497 51.5757C59.7997 52.0087 59.7147 52.5367 59.8543 53.0577L61.386 58.773C61.665 59.815 62.736 60.4333 63.778 60.154C64.8197 59.875 65.438 58.804 65.159 57.762L64.848 56.601L66.1997 57.3813C67.1337 57.9207 68.3283 57.6007 68.8677 56.6667C69.407 55.7327 69.087 54.538 68.1527 53.9987L66.801 53.2183L67.962 52.907C69.0037 52.628 69.6223 51.557 69.343 50.515Z" fill="white" fill-opacity="0.5"/>
<path d="M10.657 29.4853C10.9362 30.5272 12.0071 31.1455 13.0491 30.8662L18.7646 29.3347C19.2855 29.1951 19.7006 28.8576 19.9505 28.4247C20.2004 27.9918 20.2853 27.4636 20.1455 26.9427L18.6142 21.2272C18.335 20.1852 17.264 19.5669 16.2221 19.8462C15.1802 20.1252 14.5618 21.1963 14.841 22.2382L15.1521 23.3993L13.8004 22.6188C12.8662 22.0795 11.6717 22.3996 11.1324 23.3337C10.5931 24.2678 10.9131 25.4623 11.8472 26.0017L13.1989 26.7821L12.0379 27.0932C10.9963 27.3724 10.3778 28.4433 10.657 29.4853Z" fill="white" fill-opacity="0.5"/>
<path d="M58.7737 61.3857L53.058 59.854C52.537 59.7147 52.0087 59.7993 51.576 60.0493C51.143 60.2993 50.8053 60.7143 50.666 61.2353L49.1347 66.9507C48.8553 67.9927 49.4737 69.0637 50.5157 69.3427C51.5577 69.622 52.6287 69.0033 52.9077 67.9617L53.2187 66.8007L53.9993 68.1523C54.5387 69.0867 55.733 69.4067 56.6673 68.8673C57.6013 68.328 57.9213 67.1333 57.382 66.1993L56.6017 64.8477L57.7627 65.1587C58.8043 65.438 59.8757 64.8193 60.1547 63.7777C60.434 62.7357 59.8153 61.6647 58.7737 61.3857Z" fill="white" fill-opacity="0.5"/>
<path d="M21.2265 18.6148L26.9421 20.1462C27.4631 20.2857 27.9913 20.201 28.4241 19.951C28.8571 19.7011 29.1946 19.286 29.3342 18.765L30.8655 13.0495C31.1448 12.0076 30.5265 10.9367 29.4844 10.6575C28.4425 10.3782 27.3715 10.9967 27.0924 12.0385L26.7813 13.1995L26.0008 11.8478C25.4615 10.9137 24.267 10.5937 23.3329 11.133C22.3988 11.6723 22.0787 12.8669 22.618 13.801L23.3985 15.1527L22.2374 14.8416C21.1956 14.5626 20.1245 15.1808 19.8455 16.2227C19.5662 17.2648 20.1846 18.3357 21.2265 18.6148Z" fill="white" fill-opacity="0.5"/>
<path d="M29.3346 61.2357C29.195 60.7147 28.8575 60.2997 28.4245 60.0497C27.9916 59.7997 27.4635 59.715 26.9425 59.8547L21.227 61.386C20.1851 61.6653 19.5667 62.736 19.846 63.778C20.1251 64.82 21.1963 65.4383 22.2381 65.1593L23.3992 64.848L22.6187 66.1997C22.0794 67.134 22.3994 68.3283 23.3335 68.8677C24.2676 69.407 25.4622 69.087 26.0015 68.153L26.782 66.8013L27.093 67.9623C27.3722 69.004 28.4432 69.6227 29.4851 69.3433C30.527 69.064 31.1454 67.9933 30.8661 66.9513L29.3346 61.2357Z" fill="white" fill-opacity="0.5"/>
<path d="M50.6653 18.7648C50.805 19.2857 51.1427 19.7008 51.5757 19.9507C52.0083 20.2006 52.5367 20.2855 53.0577 20.1458L58.773 18.6144C59.815 18.3352 60.4333 17.2642 60.154 16.2223C59.875 15.1804 58.804 14.562 57.762 14.8412L56.601 15.1523L57.3813 13.8006C57.9207 12.8665 57.6007 11.6719 56.6667 11.1326C55.7323 10.5933 54.538 10.9133 53.9987 11.8474L53.218 13.1991L52.907 12.0381C52.6277 10.9963 51.557 10.3778 50.515 10.6571C49.473 10.9362 48.8547 12.0072 49.134 13.0491L50.6653 18.7648Z" fill="white" fill-opacity="0.5"/>
<path d="M19.9508 51.576C19.701 51.143 19.2859 50.8053 18.7649 50.666L13.0494 49.1343C12.0075 48.8553 10.9365 49.4737 10.6573 50.5157C10.378 51.5577 10.9967 52.6283 12.0383 52.9077L13.1994 53.2187L11.8477 53.9993C10.9136 54.5387 10.5935 55.733 11.1329 56.667C11.6722 57.6013 12.8667 57.9213 13.8008 57.382L15.1525 56.6017L14.8415 57.7627C14.5623 58.8043 15.1806 59.8753 16.2226 60.1547C17.2645 60.4337 18.3355 59.8153 18.6146 58.7733L20.146 53.0577C20.2856 52.537 20.2008 52.009 19.9508 51.576Z" fill="white" fill-opacity="0.5"/>
<path d="M69.4227 26.8198L40.7723 58.516C40.0047 59.3623 38.7613 59.3623 37.9967 58.516L20.5736 39.1133C19.8088 38.2637 19.8088 36.8827 20.5736 36.038L24.7366 31.435C25.5045 30.587 26.7476 30.587 27.5124 31.435L39.3993 44.6757L62.479 19.1347C63.244 18.2884 64.487 18.2884 65.258 19.1347L69.421 23.7448C70.1937 24.5928 70.1937 25.9735 69.4227 26.8198Z" fill="white"/>
<defs>
<linearGradient id="paint0_linear" x1="-43.3333" y1="-35" x2="83.3333" y2="83.3333" gradientUnits="userSpaceOnUse">
<stop stop-color="#7C80F2"/>
<stop offset="0.526042" stop-color="#7C80F2"/>
<stop offset="1" stop-color="#65AAFF"/>
</linearGradient>
</defs>
</svg>
