<svg width="80" height="80" viewBox="0 0 80 80" fill="none" xmlns="http://www.w3.org/2000/svg">
<path d="M66.6667 0H13.3333C5.96954 0 0 5.96954 0 13.3333V66.6667C0 74.0305 5.96954 80 13.3333 80H66.6667C74.0305 80 80 74.0305 80 66.6667V13.3333C80 5.96954 74.0305 0 66.6667 0Z" fill="url(#paint0_linear)"/>
<path d="M27 33.868V27.7346C27.0217 26.2593 27.3339 24.8028 27.9186 23.4482C28.5033 22.0936 29.3491 20.8675 30.4077 19.8398C31.4663 18.8122 32.717 18.0031 34.0883 17.4589C35.4597 16.9146 36.9247 16.6458 38.4 16.6679C39.8753 16.6458 41.3403 16.9146 42.7117 17.4589C44.083 18.0031 45.3337 18.8122 46.3923 19.8398C47.451 20.8675 48.2967 22.0936 48.8813 23.4482C49.4663 24.8028 49.7783 26.2593 49.8 27.7346V33.868" stroke="white" stroke-width="3" stroke-linecap="round" stroke-linejoin="round"/>
<path d="M38.4 31.6679C41.4327 31.6679 44.3973 32.5672 46.9187 34.252C49.4403 35.937 51.4057 38.3317 52.566 41.1333C53.7267 43.9353 54.0303 47.0183 53.4387 49.9927C52.847 52.967 51.3867 55.6993 49.2423 57.8437C47.098 59.988 44.3657 61.4483 41.3913 62.04C38.417 62.6317 35.334 62.328 32.5322 61.1673C29.7304 60.007 27.3357 58.0417 25.6508 55.52C23.966 52.9983 23.0667 50.034 23.0667 47.0013C23.0667 44.9877 23.4633 42.9937 24.2339 41.1333C25.0044 39.273 26.1339 37.5827 27.5577 36.159C30.4333 33.2834 34.3333 31.6679 38.4 31.6679ZM38.4 28.6013C34.7607 28.6013 31.2034 29.6804 28.1775 31.7022C25.1517 33.724 22.7933 36.5977 21.4006 39.96C20.008 43.322 19.6436 47.0217 20.3536 50.591C21.0635 54.1603 22.816 57.4387 25.3892 60.012C27.9625 62.5853 31.2411 64.3377 34.8103 65.0477C38.3797 65.7577 42.0793 65.3933 45.4413 64.0007C48.8037 62.608 51.6773 60.2497 53.699 57.2237C55.721 54.198 56.8 50.6403 56.8 47.0013C56.8 42.1213 54.8613 37.4413 51.4107 33.9907C47.96 30.5398 43.28 28.6013 38.4 28.6013Z" fill="white"/>
<path d="M38.4 36.8013V47.6013L45.1 53.268" stroke="white" stroke-width="3"/>
<defs>
<linearGradient id="paint0_linear" x1="-6.66667" y1="8.33333" x2="80" y2="86.6667" gradientUnits="userSpaceOnUse">
<stop stop-color="#FFA857"/>
<stop offset="1" stop-color="#FFC93F" stop-opacity="0.79"/>
</linearGradient>
</defs>
</svg>
