<svg width="80" height="80" viewBox="0 0 80 80" fill="none" xmlns="http://www.w3.org/2000/svg">
<path d="M66.6667 0H13.3333C5.96954 0 0 5.96954 0 13.3333V66.6667C0 74.0305 5.96954 80 13.3333 80H66.6667C74.0305 80 80 74.0305 80 66.6667V13.3333C80 5.96954 74.0305 0 66.6667 0Z" fill="url(#paint0_linear)"/>
<path d="M40 19.9899C28.9664 19.9899 19.9899 28.9664 19.9899 40C19.9899 51.0337 28.9664 60.0103 40 60.0103C51.0337 60.0103 60.0103 51.0337 60.0103 40C60.0103 28.9664 51.0337 19.9899 40 19.9899ZM40 58.4477C29.828 58.4477 21.5524 50.172 21.5524 40C21.5524 29.8279 29.828 21.5524 40 21.5524C50.172 21.5524 58.4477 29.8279 58.4477 40C58.4477 50.172 50.172 58.4477 40 58.4477Z" fill="white" fill-opacity="0.75"/>
<path d="M71.6017 34.5923L65.3083 33.985C64.6583 31.2759 63.5707 28.6908 62.0887 26.3316L66.1067 21.4823C66.23 21.3332 66.294 21.1436 66.2857 20.9501C66.2773 20.7566 66.1977 20.5731 66.0617 20.4352L59.6127 13.9035C59.4757 13.7645 59.291 13.682 59.096 13.6722C58.901 13.6624 58.7093 13.7261 58.5587 13.8507L53.7037 17.8714C51.342 16.3966 48.7603 15.307 46.056 14.6432L45.449 8.31316C45.4313 8.11683 45.3427 7.93369 45.1993 7.79829C45.0563 7.66289 44.8683 7.58459 44.6713 7.57812H35.4113C35.2143 7.58456 35.0263 7.66286 34.8833 7.79826C34.74 7.93366 34.651 8.11679 34.6337 8.31316L34.0263 14.6283C31.3167 15.2822 28.7317 16.3733 26.3731 17.8589L21.5234 13.8471C21.3734 13.7233 21.1825 13.6598 20.9882 13.6693C20.7938 13.6787 20.61 13.7603 20.4727 13.8982L13.9413 20.4306C13.8038 20.5683 13.7226 20.7523 13.7135 20.9467C13.7044 21.141 13.768 21.3318 13.8921 21.4818L17.9128 26.3372C16.4381 28.699 15.3484 31.2803 14.6846 33.9843L8.39847 34.5923C8.20687 34.612 8.02964 34.7027 7.90184 34.8467C7.77404 34.9907 7.70497 35.1777 7.70834 35.37V44.63C7.70501 44.8223 7.77407 45.0093 7.90187 45.1533C8.02967 45.2973 8.20691 45.388 8.39847 45.4077L14.6922 46.0157C15.3423 48.7247 16.4298 51.31 17.9119 53.669L13.894 58.5177C13.7698 58.6673 13.7059 58.858 13.7148 59.0523C13.7238 59.2467 13.8049 59.4307 13.9423 59.5683L20.4734 66.1C20.611 66.2373 20.7948 66.3187 20.9891 66.328C21.1833 66.337 21.374 66.2733 21.5238 66.1493L26.379 62.1287C28.7409 63.6033 31.3223 64.693 34.0267 65.3567L34.6337 71.687C34.651 71.8833 34.74 72.0663 34.8833 72.2017C35.0263 72.337 35.2143 72.4153 35.4113 72.422H44.6713C44.8683 72.4153 45.0563 72.337 45.1997 72.2017C45.3427 72.0663 45.4317 71.8833 45.449 71.687L46.0563 65.3717C48.766 64.718 51.351 63.6267 53.7097 62.141L58.559 66.1533C58.709 66.277 58.9 66.3407 59.0943 66.331C59.2887 66.3217 59.4723 66.24 59.6097 66.1023L66.1413 59.5697C66.279 59.432 66.36 59.248 66.3693 59.0537C66.3783 58.8593 66.3147 58.6687 66.1907 58.5187L62.17 53.663C63.645 51.301 64.7347 48.7193 65.3983 46.015L71.6017 45.4077C71.793 45.388 71.9703 45.2973 72.098 45.1533C72.226 45.0093 72.295 44.8223 72.2917 44.63V35.37C72.295 35.1777 72.226 34.9907 72.098 34.8467C71.9703 34.7027 71.793 34.612 71.6017 34.5923ZM70.7293 43.9213L64.6707 44.514C64.507 44.5303 64.3527 44.5983 64.2303 44.7083C64.108 44.8183 64.024 44.9647 63.9907 45.126C63.3457 48.0363 62.1787 50.806 60.547 53.301C60.457 53.4407 60.4143 53.6053 60.4243 53.7713C60.4347 53.937 60.4973 54.0953 60.6037 54.223L64.5327 58.9667L59.0073 64.4923L54.264 60.5637C54.1347 60.4567 53.974 60.394 53.8063 60.3853C53.6387 60.3767 53.4723 60.4223 53.3327 60.5153C50.848 62.1593 48.0793 63.3267 45.1677 63.957C45.0037 63.9983 44.857 64.0897 44.7473 64.2183C44.6377 64.3467 44.5707 64.5063 44.5557 64.6743L43.962 70.8593H36.121L35.5277 64.6743C35.5123 64.508 35.4447 64.3503 35.335 64.2243C35.225 64.098 35.0783 64.0097 34.9157 63.9713C32.0047 63.322 29.2353 62.1513 26.741 60.516C26.6019 60.4253 26.4375 60.3817 26.2717 60.391C26.106 60.4 25.9474 60.4617 25.8192 60.5673L21.0754 64.4937L15.5492 58.9673L19.4775 54.2233C19.5847 54.094 19.6474 53.9333 19.6561 53.7653C19.6648 53.5973 19.6191 53.4313 19.5258 53.2913C17.8817 50.807 16.7146 48.038 16.0841 45.1263C16.0524 44.9657 15.9699 44.8197 15.8487 44.7093C15.7276 44.599 15.5742 44.5307 15.4112 44.5143L9.27084 43.9203V36.0797L15.4112 35.4863C15.5751 35.47 15.7296 35.402 15.852 35.292C15.9745 35.182 16.0585 35.0353 16.0919 34.8743C16.7374 31.9638 17.9043 29.1943 19.5362 26.6995C19.626 26.5597 19.6689 26.395 19.6586 26.2293C19.6484 26.0635 19.5857 25.9053 19.4794 25.7776L15.5501 21.0335L21.0753 15.5078L25.8188 19.4362C25.9482 19.5434 26.1087 19.6059 26.2765 19.6146C26.4443 19.6233 26.6105 19.5777 26.7503 19.4845C29.2347 17.8405 32.0035 16.6734 34.915 16.043C35.079 16.0015 35.2257 15.9103 35.3353 15.7817C35.445 15.6532 35.512 15.4938 35.527 15.3255L36.121 9.14063H43.962L44.555 15.3255C44.5703 15.4922 44.638 15.6497 44.748 15.7759C44.858 15.9021 45.0047 15.9905 45.1677 16.0286C48.0787 16.678 50.848 17.8486 53.3423 19.4837C53.4817 19.5742 53.646 19.6181 53.8117 19.6088C53.9777 19.5996 54.136 19.5378 54.2643 19.4324L59.004 15.5089L64.4533 21.0297L60.522 25.7772C60.415 25.9067 60.3523 26.0673 60.3437 26.2352C60.335 26.403 60.3807 26.5693 60.474 26.7091C62.118 29.1936 63.285 31.9624 63.9157 34.874C63.947 35.035 64.0297 35.1813 64.1507 35.2917C64.272 35.402 64.4253 35.4703 64.5883 35.4867L70.7293 36.0797V43.9213Z" fill="white" fill-opacity="0.75"/>
<path fill-rule="evenodd" clip-rule="evenodd" d="M46.4003 38.0234C46.516 37.4197 47.0077 37.0457 47.4983 37.1877C48.9753 37.6147 50.1857 38.3214 51.048 39.192C51.8927 40.0454 52.5 41.166 52.5 42.4067C52.5 44.553 50.99 46.2014 49.2183 47.2434C47.365 48.333 44.863 48.9994 42.1363 48.9994C39.6153 48.9994 37.2917 48.4304 35.4947 47.4897C33.756 46.5794 32.2827 45.1934 31.8777 43.3767C31.7443 42.7787 32.0305 42.161 32.5168 41.997C33.0032 41.833 33.5057 42.185 33.639 42.783C33.8153 43.575 34.614 44.5877 36.21 45.4234C37.748 46.2287 39.8227 46.7537 42.1363 46.7537C44.6433 46.7537 46.867 46.1367 48.4303 45.2174C50.0753 44.25 50.6737 43.1637 50.6737 42.4067C50.6737 42.096 50.506 41.5507 49.889 40.9277C49.289 40.3217 48.351 39.7414 47.0803 39.3737C46.5893 39.2317 46.285 38.627 46.4003 38.0234Z" fill="white"/>
<path fill-rule="evenodd" clip-rule="evenodd" d="M31.5252 31.0883C29.882 31.9553 29.3264 32.9438 29.3264 33.6637C29.3264 34.4197 29.9223 35.5037 31.5598 36.4687C33.1166 37.3863 35.3307 38.002 37.8277 38.002C40.3247 38.002 42.5387 37.3863 44.0953 36.4687C45.733 35.5037 46.3287 34.4197 46.3287 33.6637C46.3287 32.9438 45.7733 31.9553 44.13 31.0883C42.5707 30.2655 40.3463 29.7457 37.8277 29.7457C35.3087 29.7457 33.0846 30.2655 31.5252 31.0883ZM30.8052 29.0245C32.6494 28.0514 35.1323 27.5 37.8277 27.5C40.523 27.5 43.0057 28.0514 44.85 29.0245C46.6103 29.9533 48.155 31.4853 48.155 33.6637C48.155 35.8067 46.6507 37.453 44.8847 38.494C43.038 39.5823 40.5447 40.2477 37.8277 40.2477C35.1103 40.2477 32.6174 39.5823 30.7706 38.494C29.0044 37.453 27.5002 35.8067 27.5002 33.6637C27.5002 31.4853 29.0448 29.9533 30.8052 29.0245Z" fill="white"/>
<path fill-rule="evenodd" clip-rule="evenodd" d="M32.7583 41.5027C33.2626 41.5027 33.6713 42.0054 33.6713 42.6254C33.6713 43.365 34.2617 44.4394 35.9023 45.3987C37.4597 46.309 39.6747 46.9204 42.1727 46.9204C44.6703 46.9204 46.8853 46.309 48.443 45.3987C50.0833 44.4394 50.6737 43.365 50.6737 42.6254C50.6737 42.0054 51.0827 41.5027 51.587 41.5027C52.091 41.5027 52.5 42.0054 52.5 42.6254V46.126C52.5 48.2947 50.9777 49.8847 49.2117 50.8684C47.3657 51.897 44.8777 52.5 42.1727 52.5C39.4673 52.5 36.9793 51.897 35.1333 50.8684C33.3677 49.8847 31.8452 48.2947 31.8452 46.126V42.6254C31.8452 42.0054 32.254 41.5027 32.7583 41.5027ZM33.695 46.3947C33.818 47.111 34.4373 48.015 35.887 48.8227C37.4443 49.6904 39.6637 50.2544 42.1727 50.2544C44.6813 50.2544 46.9007 49.6904 48.4583 48.8227C49.908 48.015 50.527 47.111 50.6503 46.3947C50.2163 46.7867 49.732 47.1314 49.227 47.4267C47.381 48.506 44.8887 49.166 42.1727 49.166C39.4563 49.166 36.9643 48.506 35.118 47.4267C34.613 47.1314 34.129 46.7867 33.695 46.3947Z" fill="white"/>
<path fill-rule="evenodd" clip-rule="evenodd" d="M31.557 36.647C33.1145 37.5577 35.3297 38.1687 37.8273 38.1687C40.3253 38.1687 42.5403 37.5577 44.0977 36.647C45.7383 35.6877 46.3287 34.6133 46.3287 33.8737H48.1547V37.3743C48.1547 39.543 46.6323 41.133 44.8667 42.1167C43.0203 43.1453 40.5327 43.7483 37.8273 43.7483C35.1223 43.7483 32.6343 43.1453 30.7882 42.1167C29.0224 41.133 27.5 39.543 27.5 37.3743V33.8737H29.3262C29.3262 34.6133 29.9165 35.6877 31.557 36.647ZM29.3497 37.643C29.4728 38.3593 30.092 39.2633 31.5417 40.071C33.0993 40.939 35.3183 41.5027 37.8273 41.5027C40.3363 41.5027 42.5553 40.939 44.113 40.071C45.5627 39.2633 46.182 38.3593 46.305 37.643C45.871 38.035 45.387 38.3797 44.882 38.675C43.0357 39.7543 40.5437 40.4143 37.8273 40.4143C35.1113 40.4143 32.6191 39.7543 30.7729 38.675C30.2679 38.3797 29.7837 38.035 29.3497 37.643Z" fill="white"/>
<defs>
<linearGradient id="paint0_linear" x1="-8.33333" y1="-13.3333" x2="40" y2="80" gradientUnits="userSpaceOnUse">
<stop stop-color="#FF337C"/>
<stop offset="1" stop-color="#A806F4"/>
</linearGradient>
</defs>
</svg>
