<svg xmlns="http://www.w3.org/2000/svg" viewBox="0 0 512 512"><circle cx="108.701" cy="372.172" r="79.239" fill="#96c8ef"/><path d="M187.935 372.193c0 25.161-11.74 47.566-30.027 62.082a182.914 182.914 0 0 1-6.041-8.619c-23.623-35.925-36.853-82.855-37.412-132.47 41.072 2.953 73.48 37.183 73.48 79.007z" fill="#5aaae7"/><circle cx="110.728" cy="216.743" r="110.728" fill="#c2dff6"/><g fill="#96c8ef"><path d="M221.46 216.744c0 59.092-46.29 107.368-104.585 110.558a285.171 285.171 0 0 1-2.445-37.413c0-50.824 13.296-99.033 37.439-135.749 6.897-10.489 14.509-19.786 22.759-27.838 28.333 20.056 46.832 53.087 46.832 90.442z"/><circle cx="403.299" cy="372.172" r="79.239"/></g><path d="M324.065 372.193c0 25.161 11.74 47.566 30.027 62.082a182.914 182.914 0 0 0 6.041-8.619c23.623-35.925 36.853-82.855 37.412-132.47-41.072 2.953-73.48 37.183-73.48 79.007z" fill="#5aaae7"/><circle cx="401.272" cy="216.743" r="110.728" fill="#c2dff6"/><path d="M290.54 216.744c0 59.092 46.29 107.368 104.585 110.558a285.171 285.171 0 0 0 2.445-37.413c0-50.824-13.296-99.033-37.439-135.749-6.897-10.489-14.509-19.786-22.759-27.838-28.333 20.056-46.832 53.087-46.832 90.442z" fill="#96c8ef"/><path d="M403.303 427.902a7.837 7.837 0 0 1-7.837-7.837 7.837 7.837 0 0 1 7.837-7.837c22.087 0 40.056-17.969 40.056-40.055 0-4.328 3.508-7.837 7.837-7.837s7.837 3.509 7.837 7.837c0 30.73-25 55.729-55.73 55.729z" fill="#5aaae7"/><path d="M31.347 224.578a7.837 7.837 0 0 1-7.837-7.837c0-48.094 39.126-87.22 87.22-87.22a7.837 7.837 0 0 1 7.837 7.837 7.837 7.837 0 0 1-7.837 7.837c-39.451 0-71.546 32.095-71.546 71.546a7.837 7.837 0 0 1-7.837 7.837zm53.29 74.981a7.813 7.813 0 0 1-2.583-.44C71.972 295.6 62.7 290.301 54.499 283.37c-8.991-7.598-16.247-16.755-21.567-27.213a7.838 7.838 0 0 1 13.972-7.106c4.367 8.586 10.326 16.105 17.711 22.348a71.34 71.34 0 0 0 22.604 12.922 7.836 7.836 0 0 1 4.816 9.982 7.84 7.84 0 0 1-7.398 5.256z" fill="#96c8ef"/><path d="M229.36 157.941a7.839 7.839 0 0 1-7.145-4.609l-39.706-87.771a7.838 7.838 0 0 1 14.28-6.461l39.706 87.771a7.838 7.838 0 0 1-7.135 11.07zm53.28 0a7.837 7.837 0 0 1-7.135-11.069l39.706-87.771a7.837 7.837 0 0 1 14.28 6.461l-39.706 87.771a7.839 7.839 0 0 1-7.145 4.608z" fill="#57565c"/><ellipse cx="256" cy="289.886" rx="110.226" ry="167.623" fill="#ffeb99"/><path d="M197.078 289.887c0-79.143 36.07-145.465 84.573-163.048-8.232-2.984-16.819-4.574-25.651-4.574-60.875 0-110.223 75.047-110.223 167.621S195.125 457.507 256 457.507c8.833 0 17.419-1.589 25.651-4.574-48.502-17.582-84.573-83.903-84.573-163.046z" fill="#ffde55"/><path d="M147.984 256.362h216.034c-3.306-24.771-10.206-47.556-19.833-67.048H167.816c-9.628 19.492-16.526 42.277-19.832 67.048zm19.832 134.097h176.367c9.628-19.492 16.526-42.278 19.833-67.048H147.984c3.306 24.771 10.204 47.557 19.832 67.048z" fill="#787680"/><path d="M199.289 323.41h-51.306c3.307 24.771 10.206 47.556 19.833 67.048h51.31c-9.63-19.49-16.53-42.274-19.837-67.048zm-31.473-134.096c-9.628 19.492-16.526 42.278-19.833 67.048h51.306c3.307-24.772 10.208-47.557 19.837-67.048h-51.31z" fill="#57565c"/></svg>