<svg xmlns="http://www.w3.org/2000/svg" viewBox="0 0 499.255 499.255"><g fill="#7da81d"><path d="M253.972 469.961a4.345 4.345 0 0 1-4.34 4.348 4.35 4.35 0 0 1-4.34-4.348V98.848a4.343 4.343 0 0 1 4.34-4.34 4.348 4.348 0 0 1 4.34 4.34v371.113z"/><circle cx="249.624" cy="482.154" r="17.085"/><path d="M249.789 0c-18.038 8.854-31.705 48.679-31.705 67.694s13.666 34.784 31.705 38.148V0z"/></g><path d="M249.474 0c18.038 8.854 31.689 48.679 31.689 67.694s-13.666 34.784-31.689 38.148V0z" fill="#469315"/><path d="M329.488 118.674c-19.031-6.483-56.848 12.036-70.302 25.474-13.422 13.438-14.935 34.257-4.553 49.38l74.855-74.854z" fill="#7da81d"/><path d="M329.283 118.469c6.475 19.015-12.036 56.848-25.458 70.286-13.454 13.446-34.265 14.927-49.396 4.569l74.854-74.855z" fill="#469315"/><path d="M329.488 206.572c-19.031-6.491-56.848 12.02-70.302 25.466-13.422 13.438-14.935 34.257-4.553 49.373l74.855-74.839z" fill="#7da81d"/><path d="M329.283 206.368c6.475 19.015-12.036 56.84-25.458 70.286-13.454 13.438-34.265 14.927-49.396 4.561l74.854-74.847z" fill="#469315"/><path d="M329.488 294.463c-19.031-6.498-56.848 12.02-70.302 25.458-13.422 13.446-14.935 34.257-4.553 49.38l74.855-74.838z" fill="#7da81d"/><path d="M329.283 294.258c6.475 19.015-12.036 56.848-25.458 70.286-13.454 13.438-34.265 14.935-49.396 4.569l74.854-74.855z" fill="#469315"/><path d="M316.152 395.634c-15.628-5.325-46.75 9.901-57.777 20.953-11.059 11.043-12.288 28.168-3.765 40.606l61.542-61.559z" fill="#7da81d"/><path d="M315.987 395.485c5.333 15.636-9.878 46.742-20.937 57.793-11.059 11.043-28.152 12.272-40.613 3.749l61.55-61.542z" fill="#469315"/><path d="M169.759 118.674c19.031-6.483 56.848 12.036 70.302 25.474 13.422 13.438 14.935 34.257 4.553 49.38l-74.855-74.854z" fill="#7da81d"/><path d="M169.98 118.469c-6.491 19.015 12.02 56.848 25.458 70.286 13.454 13.446 34.249 14.927 49.38 4.569l-74.838-74.855z" fill="#469315"/><path d="M169.759 206.572c19.031-6.491 56.848 12.02 70.302 25.466 13.422 13.438 14.935 34.257 4.553 49.373l-74.855-74.839z" fill="#7da81d"/><path d="M169.98 206.368c-6.491 19.015 12.02 56.84 25.458 70.286 13.454 13.438 34.249 14.927 49.38 4.561l-74.838-74.847z" fill="#469315"/><path d="M169.759 294.463c19.031-6.498 56.848 12.02 70.302 25.458 13.422 13.446 14.935 34.257 4.553 49.38l-74.855-74.838z" fill="#7da81d"/><path d="M169.98 294.258c-6.491 19.015 12.02 56.848 25.458 70.286 13.454 13.438 34.249 14.935 49.38 4.569l-74.838-74.855z" fill="#469315"/><path d="M183.095 395.634c15.644-5.325 46.75 9.901 57.793 20.953 11.059 11.043 12.288 28.168 3.749 40.606l-61.542-61.559z" fill="#7da81d"/><path d="M183.276 395.485c-5.333 15.636 9.862 46.742 20.937 57.793 11.059 11.043 28.136 12.272 40.598 3.749l-61.535-61.542zm-84.621-32.839a.177.177 0 0 0 .032.047l.047-.008c9.476 6.38 22.418 5.427 30.791-2.954 8.381-8.381 19.866-31.839 15.998-43.827l.095-.095-.11-.024-.016-.102-.095.087c-12.004-3.868-35.47 7.617-43.843 15.998-1.284 1.292-2.332 2.702-3.261 4.175v-29.042c.11.181.181.378.299.559l-.032.032.079.047c.032.032.032.063.063.095l.032-.039c9.476 6.38 22.418 5.419 30.791-2.954 8.381-8.381 19.866-31.854 15.998-43.835l.095-.095-.11-.024c-.016-.032-.016-.079-.016-.11l-.095.095c-12.004-3.86-35.47 7.633-43.843 16.006-1.284 1.292-2.332 2.71-3.261 4.175V251.89c9.854-3.119 17.03-12.225 17.03-23.127 0-11.847-8.452-36.573-19.669-42.315v-.118c-.032.016-.063.047-.063.047-.063 0-.095-.032-.126-.047v.118c-11.209 5.742-19.684 30.468-19.684 42.315 0 10.902 7.192 20.015 17.054 23.127v28.971c-.929-1.473-1.985-2.899-3.277-4.183-8.381-8.365-31.846-19.866-43.835-16.006l-.095-.095c-.008.032 0 .079-.008.11l-.11.024.095.095c-3.875 11.981 7.617 35.454 15.99 43.835 8.381 8.373 21.315 9.334 30.775 2.946l.047.047c.032-.032.032-.071.063-.102l.063-.039-.032-.032c.126-.181.197-.378.323-.559v29.05c-.929-1.473-1.985-2.891-3.277-4.183-8.381-8.381-31.846-19.866-43.835-15.998l-.095-.087c-.008.031 0 .071-.008.102l-.11.024.095.095c-3.875 11.981 7.617 35.446 15.99 43.827 8.381 8.381 21.315 9.334 30.791 2.954l.032.032.047-.071.079-.047-.032-.032c.126-.189.197-.386.323-.583v29.058c-.929-1.473-1.985-2.899-3.277-4.183-8.381-8.373-31.846-19.866-43.835-15.998l-.095-.095c-.008.032 0 .079-.008.118l-.11.016.095.087c-3.875 11.981 7.617 35.454 15.99 43.827 8.381 8.381 21.315 9.342 30.791 2.962l.032.032c.016-.024.032-.055.032-.055l.095-.071-.032-.031c.126-.189.197-.386.323-.575v33.91c-.78-1.252-1.662-2.458-2.765-3.545-6.869-6.892-26.175-16.345-36.029-13.162l-.079-.071-.016.087-.095.016.079.079c-3.182 9.846 6.262 29.152 13.162 36.045 6.892 6.892 17.495 7.672 25.309 2.434l.016.024c.016-.016.016-.039.016-.039s.079-.047.11-.071l-.032-.032c.126-.189.197-.394.323-.591v6.073c-4.592 1.213-7.987 5.348-7.987 10.319 0 5.908 4.781 10.705 10.705 10.705 5.916 0 10.713-4.797 10.713-10.705 0-4.97-3.403-9.106-7.987-10.327v-6.049c.11.181.197.386.315.575l-.047.032c.032.024.063.032.063.032s.047.063.063.079l.032-.024c7.798 5.246 18.424 4.458 25.309-2.434 6.9-6.892 16.345-26.207 13.147-36.053l.079-.071-.079-.016-.008-.087-.079.071c-9.846-3.182-29.16 6.278-36.037 13.162-1.095 1.087-1.977 2.3-2.757 3.552v-33.918c.11.181.197.386.315.567l-.047.039.095.047.047.079.032-.032c9.476 6.38 22.418 5.419 30.791-2.962 8.381-8.365 19.866-31.846 15.998-43.827l.095-.087-.11-.016-.016-.118-.095.095c-12.004-3.868-35.47 7.625-43.843 15.998-1.284 1.292-2.332 2.702-3.261 4.175v-29.05c.11.181.197.386.315.575l-.047.039.107.047zm308.137 0a.177.177 0 0 0 .032.047l.047-.008c9.476 6.38 22.41 5.427 30.791-2.954 8.373-8.381 19.866-31.839 15.99-43.827l.095-.095-.11-.024-.008-.102-.095.087c-12.004-3.868-35.47 7.617-43.851 15.998-1.276 1.292-2.332 2.702-3.261 4.175v-29.042c.11.181.181.378.307.559l-.032.032.079.047c.031.032.031.063.063.095l.032-.039c9.476 6.38 22.41 5.419 30.791-2.954 8.373-8.381 19.866-31.854 15.99-43.835l.095-.095-.11-.024c-.008-.032-.008-.079-.008-.11l-.095.095c-12.004-3.86-35.47 7.633-43.851 16.006-1.276 1.292-2.332 2.71-3.261 4.175V251.89c9.862-3.119 17.038-12.225 17.038-23.127 0-11.847-8.46-36.573-19.669-42.315v-.118c-.032.016-.063.047-.063.047-.063 0-.095-.032-.126-.047v.118c-11.217 5.742-19.684 30.468-19.684 42.315 0 10.902 7.192 20.015 17.046 23.127v28.971c-.929-1.473-1.977-2.899-3.277-4.183-8.373-8.365-31.839-19.866-43.827-16.006l-.095-.095c-.016.032 0 .079-.016.11l-.11.024.095.095c-3.868 11.981 7.617 35.454 15.998 43.835 8.373 8.373 21.315 9.334 30.775 2.946l.047.047c.031-.032.031-.071.063-.102l.063-.039-.032-.032c.118-.181.189-.378.315-.559v29.05c-.929-1.473-1.977-2.891-3.277-4.183-8.373-8.381-31.839-19.866-43.827-15.998l-.095-.087c-.016.031 0 .071-.016.102l-.11.024.095.095c-3.868 11.981 7.617 35.446 15.998 43.827 8.373 8.381 21.315 9.334 30.791 2.954l.032.032.047-.071.079-.047-.032-.032c.118-.189.189-.386.315-.583v29.058c-.929-1.473-1.977-2.899-3.277-4.183-8.373-8.373-31.839-19.866-43.827-15.998l-.095-.095c-.016.032 0 .079-.016.118l-.11.016.095.087c-3.868 11.981 7.617 35.454 15.998 43.827 8.373 8.381 21.315 9.342 30.791 2.962l.032.032c.016-.024.031-.055.031-.055l.095-.071-.032-.031c.118-.189.189-.386.315-.575v33.91c-.78-1.252-1.662-2.458-2.757-3.545-6.877-6.892-26.175-16.345-36.037-13.162l-.079-.071-.008.087-.095.016.079.079c-3.182 9.846 6.262 29.152 13.162 36.045 6.884 6.892 17.495 7.672 25.309 2.434l.016.024c.016-.016.016-.039.016-.039s.079-.047.11-.071l-.032-.032c.118-.189.189-.394.315-.591v6.073c-4.584 1.213-7.987 5.348-7.987 10.319 0 5.908 4.781 10.705 10.713 10.705 5.908 0 10.705-4.797 10.705-10.705 0-4.97-3.395-9.106-7.987-10.327v-6.049c.11.181.197.386.323.575l-.032.032c.032.024.063.032.063.032s.047.063.063.079l.032-.024c7.798 5.246 18.416 4.458 25.309-2.434 6.9-6.892 16.345-26.207 13.147-36.053l.079-.071-.079-.016-.016-.087-.079.071c-9.838-3.182-29.16 6.278-36.029 13.162-1.103 1.087-1.985 2.3-2.765 3.552v-33.918c.11.181.197.386.323.567l-.047.039.095.047.047.079.032-.032c9.476 6.38 22.41 5.419 30.791-2.962 8.373-8.365 19.866-31.846 15.99-43.827l.095-.087-.11-.016-.008-.118-.095.095c-12.004-3.868-35.47 7.625-43.851 15.998-1.276 1.292-2.332 2.702-3.261 4.175v-29.05c.11.181.197.386.323.575l-.047.039.093.047z" fill="#469315"/></svg>