<svg xmlns="http://www.w3.org/2000/svg" height="512pt" viewBox="0 0 512 512" width="512pt"><path d="M361 331c-41.422 0-75-33.578-75-75 0-8.285 6.715-15 15-15 41.422 0 75 33.578 75 75 0 8.285-6.715 15-15 15zm0-120c-41.422 0-75-33.578-75-75 0-8.285 6.715-15 15-15 41.422 0 75 33.578 75 75 0 8.285-6.715 15-15 15zm0 0" fill="#a8d32a"/><path d="M391 331c41.422 0 75-33.578 75-75 0-8.285-6.715-15-15-15-41.422 0-75 33.578-75 75 0 8.285 6.715 15 15 15zm0-120c41.422 0 75-33.578 75-75 0-8.285-6.715-15-15-15-41.422 0-75 33.578-75 75 0 8.285 6.715 15 15 15zm0 0" fill="#93bf00"/><path d="M391 136v300c0 8.398-6.598 15-15 15-8.402 0-15-6.602-15-15V136c0-8.402 6.598-15 15-15 8.402 0 15 6.598 15 15zm0 0" fill="#b9dd39"/><path d="M376 451V121c8.402 0 15 6.598 15 15v300c0 8.398-6.598 15-15 15zm0 0" fill="#a8d32a"/><path d="M385.902 3.898C383.2 1.2 379.602 0 376 0c-3.602 0-7.2 1.2-9.902 3.898C364.602 5.098 331 36.7 331 76c0 39.3 33.602 69.898 35.098 71.102C368.8 149.8 372.398 151 376 151c3.602 0 7.2-1.2 9.902-3.898C387.398 145.898 421 115.3 421 76c0-39.3-33.602-70.902-35.098-72.102zm0 0" fill="#a8d32a"/><path d="M421 76c0 39.3-33.602 69.898-35.098 71.102C383.2 149.8 379.602 151 376 151V0c3.602 0 7.2 1.2 9.902 3.898C387.398 5.098 421 36.7 421 76zm0 0" fill="#93bf00"/><path d="M121 331c-41.422 0-75-33.578-75-75 0-8.285 6.715-15 15-15 41.422 0 75 33.578 75 75 0 8.285-6.715 15-15 15zm0-120c-41.422 0-75-33.578-75-75 0-8.285 6.715-15 15-15 41.422 0 75 33.578 75 75 0 8.285-6.715 15-15 15zm0 0" fill="#a8d32a"/><path d="M151 331c41.422 0 75-33.578 75-75 0-8.285-6.715-15-15-15-41.422 0-75 33.578-75 75 0 8.285 6.715 15 15 15zm0-120c41.422 0 75-33.578 75-75 0-8.285-6.715-15-15-15-41.422 0-75 33.578-75 75 0 8.285 6.715 15 15 15zm0 0" fill="#93bf00"/><path d="M151 136v300c0 8.398-6.598 15-15 15-8.402 0-15-6.602-15-15V136c0-8.402 6.598-15 15-15 8.402 0 15 6.598 15 15zm0 0" fill="#b9dd39"/><path d="M136 451V121c8.402 0 15 6.598 15 15v300c0 8.398-6.598 15-15 15zm0 0" fill="#a8d32a"/><path d="M145.902 3.898C143.2 1.2 139.602 0 136 0c-3.602 0-7.2 1.2-9.902 3.898C124.602 5.098 91 36.7 91 76c0 39.3 33.602 69.898 35.098 71.102C128.8 149.8 132.398 151 136 151c3.602 0 7.2-1.2 9.902-3.898C147.398 145.898 181 115.3 181 76c0-39.3-33.602-70.902-35.098-72.102zm0 0" fill="#a8d32a"/><path d="M181 76c0 39.3-33.602 69.898-35.098 71.102C143.2 149.8 139.602 151 136 151V0c3.602 0 7.2 1.2 9.902 3.898C147.398 5.098 181 36.7 181 76zm0 0" fill="#93bf00"/><path d="M502.7 383.5c-4.2-1.8-8.102-3.898-11.7-6.3-32.402-21.598-75.098-21.598-107.5 0-22.5 14.702-51.3 14.702-73.5 0-16.5-10.802-35.102-16.2-54-16.2-18 0-36.598 5.398-52.5 16.2-22.5 14.702-51.3 14.702-73.5 0-32.402-21.598-75.098-21.598-107.5 0-2.7 1.8-5.7 2.698-8.7 3-7.8.6-13.8 7.198-13.8 15V497c0 8.402 6.598 15 15 15h482c8.402 0 15-6.598 15-15v-99.7c0-6-3.602-11.698-9.3-13.8zm0 0" fill="#7e5d40"/><path d="M512 397.3V497c0 8.402-6.598 15-15 15H256V361c18.898 0 37.5 5.398 54 16.2 22.2 14.702 51 14.702 73.5 0 32.402-21.598 75.098-21.598 107.5 0 3.602 2.402 7.5 4.5 11.7 6.3 5.698 2.102 9.3 7.8 9.3 13.8zm0 0" fill="#684d34"/><path d="M106 451H76c-8.29 0-15-6.71-15-15s6.71-15 15-15h30c8.29 0 15 6.71 15 15s-6.71 15-15 15zm0 0" fill="#5c442f"/><path d="M436 451h-30c-8.29 0-15-6.71-15-15s6.71-15 15-15h30c8.29 0 15 6.71 15 15s-6.71 15-15 15zm0 0" fill="#4c3828"/><path d="M286 436c0 8.402-6.598 15-15 15h-30c-8.402 0-15-6.598-15-15 0-8.402 6.598-15 15-15h30c8.402 0 15 6.598 15 15zm0 0" fill="#5c442f"/><path d="M286 436c0 8.402-6.598 15-15 15h-15v-30h15c8.402 0 15 6.598 15 15zm0 0" fill="#4c3828"/></svg>